<?xml version="1.0" encoding="UTF-8" standalone="no"?>
<!-- Created with Inkscape (http://www.inkscape.org/) -->

<svg
   xmlns:dc="http://purl.org/dc/elements/1.1/"
   xmlns:cc="http://creativecommons.org/ns#"
   xmlns:rdf="http://www.w3.org/1999/02/22-rdf-syntax-ns#"
   xmlns:svg="http://www.w3.org/2000/svg"
   xmlns="http://www.w3.org/2000/svg"
   xmlns:xlink="http://www.w3.org/1999/xlink"
   id="svg-mayuge"
>
  <style type="text/css">
    .draggable {
      cursor: move;
    }
  </style>
  <defs
     id="defs-mayuge">
    <path
       d="M -17.185926,2.933111 C -27.24679,1.354389 -33.390045,1.674696 -42.278488,1.071244 c -12.196992,-0.86833299 -26.1369,1.1868087 -35.980296,8.6164226 -5.843749,4.4107534 -7.624575,14.1230854 -10.77498,19.1399354 -3.128878,2.812971 -0.763776,-11.457216 -0.07405,-14.473171 1.082341,-4.7327621 5.966687,-14.51140905 8.643079,-18.1277175 5.452584,-5.9203637 8.028971,-8.7736745 15.045018,-12.0356445 14.153843,-6.580545 21.53749,-8.848621 37.120761,-7.956152 4.524186,0.259104 18.8395633,0.250103 22.3195974,3.152646 3.9194788,3.269064 7.6202185,12.7579273 7.3178741,17.8527953 C 1.2337987,-0.99510379 0.05048287,0.78175081 -1.4124347,1.7739358 -3.6803882,3.3121151 -4.8993814,2.8232784 -9.5198091,3.1366379 -12.826611,3.3609067 -13.292253,3.2399448 -17.185926,2.933111 z"
       id="path-r-mayuge-tare" />
    <path
       d="m -16.805624,0.00328114 c -2.13943,-1.92039004 -5.901263,-4.51068004 -8.359628,-5.75620004 -11.148498,-5.6483401 -23.725107,-15.0555901 -31.425581,-23.5062201 -12.732925,-13.97331 -17.074608,-14.66269 -27.996923,-4.4454 -3.499433,3.27355 -6.691544,5.95191 -7.093581,5.95191 -1.45856,0 0.681181,-5.62233 4.141902,-10.88316 4.407415,-6.69995 11.445202,-13.617691 16.453263,-16.172591 9.385649,-4.7882 17.027779,-2.035 38.136341,13.739331 7.016636,5.2435 14.426953,10.38476 16.467369,11.42503 4.03668,2.05801 9.002317,2.407 13.971316,0.98191 2.486327,-0.71307 3.29472805,-0.58743 3.743399,0.58179 0.854522,2.22685 0.661221,27.63955011 -0.220794,29.02707014 -0.41932995,0.65965006 -3.724496,1.50284996 -7.344814,1.87375996 -6.499064,0.6658504 -6.63164,0.6301904 -10.472269,-2.81722996 z"
       id="path-r-mayuge-golgo" />
    <path
       d="m -90.442886,-26.891897 c 28.132442,-3.423817 54.618137,-2.957617 90.67598689,0 8.98304081,0.736827 9.01193211,26.88792087 0,27.03962687 -37.22335089,0.62661433 -63.00974589,1.55901523 -90.67598689,0 -8.998933,-0.50709719 -8.947191,-25.95072187 0,-27.03962687 z"
       id="path-r-mayuge-imoto" />
    <path
         d="m -71.647117,-35.917299 c 3.151377,1.2329 35.742485,9.872525 69.3700704,29.0765664 C 5.0425403,-2.660662 -1.2050385,3.2048655 -4.1302038,2.2652969 -38.599658,-8.8063569 -54.991536,-10.976521 -93.038371,-5.8864576 c -8.317589,1.112762 13.588372,-33.0835304 21.391254,-30.0308414 z"
         id="path-r-mayuge-sankaku"/>
    </defs>
    <path
       d="M -110.00893,-13.867694 C -80.816408,-49.500436 -35.396474,-50.303673 2.6220713,-13.652269 9.1109748,-7.3967058 -2.4637146,8.4558245 -9.5989528,2.9488914 -52.305994,-30.012141 -65.126071,-23.420486 -98.336114,5.7494169 -105.10801,11.697476 -115.72094,-6.8955419 -110.00893,-13.867694 z"
       id="path-r-mayuge-imoto2" />
</svg>
